# xmcd
# 
# Track frame offsets:
#     183
#     25883
#     56858
#     78483
#     100138
#     118295
#     143260
#     166110
#     186960
#     219905
# 
# Disc length: 3292
# 
# Revision: 9
# Processed by: cddbd v1.5.2PL0 Copyright (c) Steve Scherf et al.
# Submitted via: fre:ac v1.0.31
# 
DISCID=820cda0a
DTITLE=Grateful Dead - Europe '72 [disc 1] (MP3)
DYEAR=1972
DGENRE=Folk/Rock
TTITLE0=Cumberland Blues
TTITLE1=He's Gone
TTITLE2=One More Saturday Night
TTITLE3=Jack Straw
TTITLE4=You Win Again
TTITLE5=China Cat Sunflower
TTITLE6=I Know You Rider
TTITLE7=Brown-Eyed Woman
TTITLE8=Hurts Me Too
TTITLE9=Ramble On Rose
EXTD=
EXTT0=
EXTT1=
EXTT2=
EXTT3=
EXTT4=
EXTT5=
EXTT6=
EXTT7=
EXTT8=
EXTT9=
PLAYORDER=
